<?xml version="1.0" encoding="utf-8" standalone="no"?>
<!DOCTYPE svg PUBLIC "-//W3C//DTD SVG 1.1//EN"
  "http://www.w3.org/Graphics/SVG/1.1/DTD/svg11.dtd">
<svg xmlns:xlink="http://www.w3.org/1999/xlink" width="460.8pt" height="345.6pt" viewBox="0 0 460.8 345.6" xmlns="http://www.w3.org/2000/svg" version="1.1">
 <metadata>
  <rdf:RDF xmlns:dc="http://purl.org/dc/elements/1.1/" xmlns:cc="http://creativecommons.org/ns#" xmlns:rdf="http://www.w3.org/1999/02/22-rdf-syntax-ns#">
   <cc:Work>
    <dc:type rdf:resource="http://purl.org/dc/dcmitype/StillImage"/>
    <dc:date>2023-05-02T16:36:59.441005</dc:date>
    <dc:format>image/svg+xml</dc:format>
    <dc:creator>
     <cc:Agent>
      <dc:title>Matplotlib v3.7.1, https://matplotlib.org/</dc:title>
     </cc:Agent>
    </dc:creator>
   </cc:Work>
  </rdf:RDF>
 </metadata>
 <defs>
  <style type="text/css">*{stroke-linejoin: round; stroke-linecap: butt}</style>
 </defs>
 <g id="figure_1">
  <g id="patch_1">
   <path d="M 0 345.6 
L 460.8 345.6 
L 460.8 0 
L 0 0 
z
" style="fill: #ffffff"/>
  </g>
  <g id="axes_1">
   <g id="patch_2">
    <path d="M 62.93 293.56 
L 450 293.56 
L 450 10.8 
L 62.93 10.8 
z
" style="fill: #ffffff"/>
   </g>
   <g id="matplotlib.axis_1">
    <g id="xtick_1">
     <g id="line2d_1">
      <defs>
       <path id="m6f354fb2f3" d="M 0 0 
L 0 3.5 
" style="stroke: #000000; stroke-width: 0.8"/>
      </defs>
      <g>
       <use xlink:href="#m6f354fb2f3" x="80.524091" y="293.56" style="stroke: #000000; stroke-width: 0.8"/>
      </g>
     </g>
     <g id="text_1">
      <!-- 0 -->
      <g transform="translate(77.342841 308.158437) scale(0.1 -0.1)">
       <defs>
        <path id="DejaVuSans-30" d="M 2034 4250 
Q 1547 4250 1301 3770 
Q 1056 3291 1056 2328 
Q 1056 1369 1301 889 
Q 1547 409 2034 409 
Q 2525 409 2770 889 
Q 3016 1369 3016 2328 
Q 3016 3291 2770 3770 
Q 2525 4250 2034 4250 
z
M 2034 4750 
Q 2819 4750 3233 4129 
Q 3647 3509 3647 2328 
Q 3647 1150 3233 529 
Q 2819 -91 2034 -91 
Q 1250 -91 836 529 
Q 422 1150 422 2328 
Q 422 3509 836 4129 
Q 1250 4750 2034 4750 
z
" transform="scale(0.015625)"/>
       </defs>
       <use xlink:href="#DejaVuSans-30"/>
      </g>
     </g>
    </g>
    <g id="xtick_2">
     <g id="line2d_2">
      <g>
       <use xlink:href="#m6f354fb2f3" x="150.900455" y="293.56" style="stroke: #000000; stroke-width: 0.8"/>
      </g>
     </g>
     <g id="text_2">
      <!-- 20 -->
      <g transform="translate(144.537955 308.158437) scale(0.1 -0.1)">
       <defs>
        <path id="DejaVuSans-32" d="M 1228 531 
L 3431 531 
L 3431 0 
L 469 0 
L 469 531 
Q 828 903 1448 1529 
Q 2069 2156 2228 2338 
Q 2531 2678 2651 2914 
Q 2772 3150 2772 3378 
Q 2772 3750 2511 3984 
Q 2250 4219 1831 4219 
Q 1534 4219 1204 4116 
Q 875 4013 500 3803 
L 500 4441 
Q 881 4594 1212 4672 
Q 1544 4750 1819 4750 
Q 2544 4750 2975 4387 
Q 3406 4025 3406 3419 
Q 3406 3131 3298 2873 
Q 3191 2616 2906 2266 
Q 2828 2175 2409 1742 
Q 1991 1309 1228 531 
z
" transform="scale(0.015625)"/>
       </defs>
       <use xlink:href="#DejaVuSans-32"/>
       <use xlink:href="#DejaVuSans-30" x="63.623047"/>
      </g>
     </g>
    </g>
    <g id="xtick_3">
     <g id="line2d_3">
      <g>
       <use xlink:href="#m6f354fb2f3" x="221.276818" y="293.56" style="stroke: #000000; stroke-width: 0.8"/>
      </g>
     </g>
     <g id="text_3">
      <!-- 40 -->
      <g transform="translate(214.914318 308.158437) scale(0.1 -0.1)">
       <defs>
        <path id="DejaVuSans-34" d="M 2419 4116 
L 825 1625 
L 2419 1625 
L 2419 4116 
z
M 2253 4666 
L 3047 4666 
L 3047 1625 
L 3713 1625 
L 3713 1100 
L 3047 1100 
L 3047 0 
L 2419 0 
L 2419 1100 
L 313 1100 
L 313 1709 
L 2253 4666 
z
" transform="scale(0.015625)"/>
       </defs>
       <use xlink:href="#DejaVuSans-34"/>
       <use xlink:href="#DejaVuSans-30" x="63.623047"/>
      </g>
     </g>
    </g>
    <g id="xtick_4">
     <g id="line2d_4">
      <g>
       <use xlink:href="#m6f354fb2f3" x="291.653182" y="293.56" style="stroke: #000000; stroke-width: 0.8"/>
      </g>
     </g>
     <g id="text_4">
      <!-- 60 -->
      <g transform="translate(285.290682 308.158437) scale(0.1 -0.1)">
       <defs>
        <path id="DejaVuSans-36" d="M 2113 2584 
Q 1688 2584 1439 2293 
Q 1191 2003 1191 1497 
Q 1191 994 1439 701 
Q 1688 409 2113 409 
Q 2538 409 2786 701 
Q 3034 994 3034 1497 
Q 3034 2003 2786 2293 
Q 2538 2584 2113 2584 
z
M 3366 4563 
L 3366 3988 
Q 3128 4100 2886 4159 
Q 2644 4219 2406 4219 
Q 1781 4219 1451 3797 
Q 1122 3375 1075 2522 
Q 1259 2794 1537 2939 
Q 1816 3084 2150 3084 
Q 2853 3084 3261 2657 
Q 3669 2231 3669 1497 
Q 3669 778 3244 343 
Q 2819 -91 2113 -91 
Q 1303 -91 875 529 
Q 447 1150 447 2328 
Q 447 3434 972 4092 
Q 1497 4750 2381 4750 
Q 2619 4750 2861 4703 
Q 3103 4656 3366 4563 
z
" transform="scale(0.015625)"/>
       </defs>
       <use xlink:href="#DejaVuSans-36"/>
       <use xlink:href="#DejaVuSans-30" x="63.623047"/>
      </g>
     </g>
    </g>
    <g id="xtick_5">
     <g id="line2d_5">
      <g>
       <use xlink:href="#m6f354fb2f3" x="362.029545" y="293.56" style="stroke: #000000; stroke-width: 0.8"/>
      </g>
     </g>
     <g id="text_5">
      <!-- 80 -->
      <g transform="translate(355.667045 308.158437) scale(0.1 -0.1)">
       <defs>
        <path id="DejaVuSans-38" d="M 2034 2216 
Q 1584 2216 1326 1975 
Q 1069 1734 1069 1313 
Q 1069 891 1326 650 
Q 1584 409 2034 409 
Q 2484 409 2743 651 
Q 3003 894 3003 1313 
Q 3003 1734 2745 1975 
Q 2488 2216 2034 2216 
z
M 1403 2484 
Q 997 2584 770 2862 
Q 544 3141 544 3541 
Q 544 4100 942 4425 
Q 1341 4750 2034 4750 
Q 2731 4750 3128 4425 
Q 3525 4100 3525 3541 
Q 3525 3141 3298 2862 
Q 3072 2584 2669 2484 
Q 3125 2378 3379 2068 
Q 3634 1759 3634 1313 
Q 3634 634 3220 271 
Q 2806 -91 2034 -91 
Q 1263 -91 848 271 
Q 434 634 434 1313 
Q 434 1759 690 2068 
Q 947 2378 1403 2484 
z
M 1172 3481 
Q 1172 3119 1398 2916 
Q 1625 2713 2034 2713 
Q 2441 2713 2670 2916 
Q 2900 3119 2900 3481 
Q 2900 3844 2670 4047 
Q 2441 4250 2034 4250 
Q 1625 4250 1398 4047 
Q 1172 3844 1172 3481 
z
" transform="scale(0.015625)"/>
       </defs>
       <use xlink:href="#DejaVuSans-38"/>
       <use xlink:href="#DejaVuSans-30" x="63.623047"/>
      </g>
     </g>
    </g>
    <g id="xtick_6">
     <g id="line2d_6">
      <g>
       <use xlink:href="#m6f354fb2f3" x="432.405909" y="293.56" style="stroke: #000000; stroke-width: 0.8"/>
      </g>
     </g>
     <g id="text_6">
      <!-- 100 -->
      <g transform="translate(422.862159 308.158437) scale(0.1 -0.1)">
       <defs>
        <path id="DejaVuSans-31" d="M 794 531 
L 1825 531 
L 1825 4091 
L 703 3866 
L 703 4441 
L 1819 4666 
L 2450 4666 
L 2450 531 
L 3481 531 
L 3481 0 
L 794 0 
L 794 531 
z
" transform="scale(0.015625)"/>
       </defs>
       <use xlink:href="#DejaVuSans-31"/>
       <use xlink:href="#DejaVuSans-30" x="63.623047"/>
       <use xlink:href="#DejaVuSans-30" x="127.246094"/>
      </g>
     </g>
    </g>
    <g id="text_7">
     <!-- Iteration -->
     <g transform="translate(214.047813 329.435) scale(0.2 -0.2)">
      <defs>
       <path id="DejaVuSans-49" d="M 628 4666 
L 1259 4666 
L 1259 0 
L 628 0 
L 628 4666 
z
" transform="scale(0.015625)"/>
       <path id="DejaVuSans-74" d="M 1172 4494 
L 1172 3500 
L 2356 3500 
L 2356 3053 
L 1172 3053 
L 1172 1153 
Q 1172 725 1289 603 
Q 1406 481 1766 481 
L 2356 481 
L 2356 0 
L 1766 0 
Q 1100 0 847 248 
Q 594 497 594 1153 
L 594 3053 
L 172 3053 
L 172 3500 
L 594 3500 
L 594 4494 
L 1172 4494 
z
" transform="scale(0.015625)"/>
       <path id="DejaVuSans-65" d="M 3597 1894 
L 3597 1613 
L 953 1613 
Q 991 1019 1311 708 
Q 1631 397 2203 397 
Q 2534 397 2845 478 
Q 3156 559 3463 722 
L 3463 178 
Q 3153 47 2828 -22 
Q 2503 -91 2169 -91 
Q 1331 -91 842 396 
Q 353 884 353 1716 
Q 353 2575 817 3079 
Q 1281 3584 2069 3584 
Q 2775 3584 3186 3129 
Q 3597 2675 3597 1894 
z
M 3022 2063 
Q 3016 2534 2758 2815 
Q 2500 3097 2075 3097 
Q 1594 3097 1305 2825 
Q 1016 2553 972 2059 
L 3022 2063 
z
" transform="scale(0.015625)"/>
       <path id="DejaVuSans-72" d="M 2631 2963 
Q 2534 3019 2420 3045 
Q 2306 3072 2169 3072 
Q 1681 3072 1420 2755 
Q 1159 2438 1159 1844 
L 1159 0 
L 581 0 
L 581 3500 
L 1159 3500 
L 1159 2956 
Q 1341 3275 1631 3429 
Q 1922 3584 2338 3584 
Q 2397 3584 2469 3576 
Q 2541 3569 2628 3553 
L 2631 2963 
z
" transform="scale(0.015625)"/>
       <path id="DejaVuSans-61" d="M 2194 1759 
Q 1497 1759 1228 1600 
Q 959 1441 959 1056 
Q 959 750 1161 570 
Q 1363 391 1709 391 
Q 2188 391 2477 730 
Q 2766 1069 2766 1631 
L 2766 1759 
L 2194 1759 
z
M 3341 1997 
L 3341 0 
L 2766 0 
L 2766 531 
Q 2569 213 2275 61 
Q 1981 -91 1556 -91 
Q 1019 -91 701 211 
Q 384 513 384 1019 
Q 384 1609 779 1909 
Q 1175 2209 1959 2209 
L 2766 2209 
L 2766 2266 
Q 2766 2663 2505 2880 
Q 2244 3097 1772 3097 
Q 1472 3097 1187 3025 
Q 903 2953 641 2809 
L 641 3341 
Q 956 3463 1253 3523 
Q 1550 3584 1831 3584 
Q 2591 3584 2966 3190 
Q 3341 2797 3341 1997 
z
" transform="scale(0.015625)"/>
       <path id="DejaVuSans-69" d="M 603 3500 
L 1178 3500 
L 1178 0 
L 603 0 
L 603 3500 
z
M 603 4863 
L 1178 4863 
L 1178 4134 
L 603 4134 
L 603 4863 
z
" transform="scale(0.015625)"/>
       <path id="DejaVuSans-6f" d="M 1959 3097 
Q 1497 3097 1228 2736 
Q 959 2375 959 1747 
Q 959 1119 1226 758 
Q 1494 397 1959 397 
Q 2419 397 2687 759 
Q 2956 1122 2956 1747 
Q 2956 2369 2687 2733 
Q 2419 3097 1959 3097 
z
M 1959 3584 
Q 2709 3584 3137 3096 
Q 3566 2609 3566 1747 
Q 3566 888 3137 398 
Q 2709 -91 1959 -91 
Q 1206 -91 779 398 
Q 353 888 353 1747 
Q 353 2609 779 3096 
Q 1206 3584 1959 3584 
z
" transform="scale(0.015625)"/>
       <path id="DejaVuSans-6e" d="M 3513 2113 
L 3513 0 
L 2938 0 
L 2938 2094 
Q 2938 2591 2744 2837 
Q 2550 3084 2163 3084 
Q 1697 3084 1428 2787 
Q 1159 2491 1159 1978 
L 1159 0 
L 581 0 
L 581 3500 
L 1159 3500 
L 1159 2956 
Q 1366 3272 1645 3428 
Q 1925 3584 2291 3584 
Q 2894 3584 3203 3211 
Q 3513 2838 3513 2113 
z
" transform="scale(0.015625)"/>
      </defs>
      <use xlink:href="#DejaVuSans-49"/>
      <use xlink:href="#DejaVuSans-74" x="29.492188"/>
      <use xlink:href="#DejaVuSans-65" x="68.701172"/>
      <use xlink:href="#DejaVuSans-72" x="130.224609"/>
      <use xlink:href="#DejaVuSans-61" x="171.337891"/>
      <use xlink:href="#DejaVuSans-74" x="232.617188"/>
      <use xlink:href="#DejaVuSans-69" x="271.826172"/>
      <use xlink:href="#DejaVuSans-6f" x="299.609375"/>
      <use xlink:href="#DejaVuSans-6e" x="360.791016"/>
     </g>
    </g>
   </g>
   <g id="matplotlib.axis_2">
    <g id="ytick_1">
     <g id="line2d_7">
      <defs>
       <path id="meb783a6432" d="M 0 0 
L -3.5 0 
" style="stroke: #000000; stroke-width: 0.8"/>
      </defs>
      <g>
       <use xlink:href="#meb783a6432" x="62.93" y="278.499212" style="stroke: #000000; stroke-width: 0.8"/>
      </g>
     </g>
     <g id="text_8">
      <!-- −20 -->
      <g transform="translate(34.825313 282.298431) scale(0.1 -0.1)">
       <defs>
        <path id="DejaVuSans-2212" d="M 678 2272 
L 4684 2272 
L 4684 1741 
L 678 1741 
L 678 2272 
z
" transform="scale(0.015625)"/>
       </defs>
       <use xlink:href="#DejaVuSans-2212"/>
       <use xlink:href="#DejaVuSans-32" x="83.789062"/>
       <use xlink:href="#DejaVuSans-30" x="147.412109"/>
      </g>
     </g>
    </g>
    <g id="ytick_2">
     <g id="line2d_8">
      <g>
       <use xlink:href="#meb783a6432" x="62.93" y="221.736737" style="stroke: #000000; stroke-width: 0.8"/>
      </g>
     </g>
     <g id="text_9">
      <!-- 0 -->
      <g transform="translate(49.5675 225.535956) scale(0.1 -0.1)">
       <use xlink:href="#DejaVuSans-30"/>
      </g>
     </g>
    </g>
    <g id="ytick_3">
     <g id="line2d_9">
      <g>
       <use xlink:href="#meb783a6432" x="62.93" y="164.974262" style="stroke: #000000; stroke-width: 0.8"/>
      </g>
     </g>
     <g id="text_10">
      <!-- 20 -->
      <g transform="translate(43.205 168.773481) scale(0.1 -0.1)">
       <use xlink:href="#DejaVuSans-32"/>
       <use xlink:href="#DejaVuSans-30" x="63.623047"/>
      </g>
     </g>
    </g>
    <g id="ytick_4">
     <g id="line2d_10">
      <g>
       <use xlink:href="#meb783a6432" x="62.93" y="108.211787" style="stroke: #000000; stroke-width: 0.8"/>
      </g>
     </g>
     <g id="text_11">
      <!-- 40 -->
      <g transform="translate(43.205 112.011005) scale(0.1 -0.1)">
       <use xlink:href="#DejaVuSans-34"/>
       <use xlink:href="#DejaVuSans-30" x="63.623047"/>
      </g>
     </g>
    </g>
    <g id="ytick_5">
     <g id="line2d_11">
      <g>
       <use xlink:href="#meb783a6432" x="62.93" y="51.449311" style="stroke: #000000; stroke-width: 0.8"/>
      </g>
     </g>
     <g id="text_12">
      <!-- 60 -->
      <g transform="translate(43.205 55.24853) scale(0.1 -0.1)">
       <use xlink:href="#DejaVuSans-36"/>
       <use xlink:href="#DejaVuSans-30" x="63.623047"/>
      </g>
     </g>
    </g>
    <g id="text_13">
     <!-- Performance(%) -->
     <g transform="translate(26.665938 232.84875) rotate(-90) scale(0.2 -0.2)">
      <defs>
       <path id="DejaVuSans-50" d="M 1259 4147 
L 1259 2394 
L 2053 2394 
Q 2494 2394 2734 2622 
Q 2975 2850 2975 3272 
Q 2975 3691 2734 3919 
Q 2494 4147 2053 4147 
L 1259 4147 
z
M 628 4666 
L 2053 4666 
Q 2838 4666 3239 4311 
Q 3641 3956 3641 3272 
Q 3641 2581 3239 2228 
Q 2838 1875 2053 1875 
L 1259 1875 
L 1259 0 
L 628 0 
L 628 4666 
z
" transform="scale(0.015625)"/>
       <path id="DejaVuSans-66" d="M 2375 4863 
L 2375 4384 
L 1825 4384 
Q 1516 4384 1395 4259 
Q 1275 4134 1275 3809 
L 1275 3500 
L 2222 3500 
L 2222 3053 
L 1275 3053 
L 1275 0 
L 697 0 
L 697 3053 
L 147 3053 
L 147 3500 
L 697 3500 
L 697 3744 
Q 697 4328 969 4595 
Q 1241 4863 1831 4863 
L 2375 4863 
z
" transform="scale(0.015625)"/>
       <path id="DejaVuSans-6d" d="M 3328 2828 
Q 3544 3216 3844 3400 
Q 4144 3584 4550 3584 
Q 5097 3584 5394 3201 
Q 5691 2819 5691 2113 
L 5691 0 
L 5113 0 
L 5113 2094 
Q 5113 2597 4934 2840 
Q 4756 3084 4391 3084 
Q 3944 3084 3684 2787 
Q 3425 2491 3425 1978 
L 3425 0 
L 2847 0 
L 2847 2094 
Q 2847 2600 2669 2842 
Q 2491 3084 2119 3084 
Q 1678 3084 1418 2786 
Q 1159 2488 1159 1978 
L 1159 0 
L 581 0 
L 581 3500 
L 1159 3500 
L 1159 2956 
Q 1356 3278 1631 3431 
Q 1906 3584 2284 3584 
Q 2666 3584 2933 3390 
Q 3200 3197 3328 2828 
z
" transform="scale(0.015625)"/>
       <path id="DejaVuSans-63" d="M 3122 3366 
L 3122 2828 
Q 2878 2963 2633 3030 
Q 2388 3097 2138 3097 
Q 1578 3097 1268 2742 
Q 959 2388 959 1747 
Q 959 1106 1268 751 
Q 1578 397 2138 397 
Q 2388 397 2633 464 
Q 2878 531 3122 666 
L 3122 134 
Q 2881 22 2623 -34 
Q 2366 -91 2075 -91 
Q 1284 -91 818 406 
Q 353 903 353 1747 
Q 353 2603 823 3093 
Q 1294 3584 2113 3584 
Q 2378 3584 2631 3529 
Q 2884 3475 3122 3366 
z
" transform="scale(0.015625)"/>
       <path id="DejaVuSans-28" d="M 1984 4856 
Q 1566 4138 1362 3434 
Q 1159 2731 1159 2009 
Q 1159 1288 1364 580 
Q 1569 -128 1984 -844 
L 1484 -844 
Q 1016 -109 783 600 
Q 550 1309 550 2009 
Q 550 2706 781 3412 
Q 1013 4119 1484 4856 
L 1984 4856 
z
" transform="scale(0.015625)"/>
       <path id="DejaVuSans-25" d="M 4653 2053 
Q 4381 2053 4226 1822 
Q 4072 1591 4072 1178 
Q 4072 772 4226 539 
Q 4381 306 4653 306 
Q 4919 306 5073 539 
Q 5228 772 5228 1178 
Q 5228 1588 5073 1820 
Q 4919 2053 4653 2053 
z
M 4653 2450 
Q 5147 2450 5437 2106 
Q 5728 1763 5728 1178 
Q 5728 594 5436 251 
Q 5144 -91 4653 -91 
Q 4153 -91 3862 251 
Q 3572 594 3572 1178 
Q 3572 1766 3864 2108 
Q 4156 2450 4653 2450 
z
M 1428 4353 
Q 1159 4353 1004 4120 
Q 850 3888 850 3481 
Q 850 3069 1003 2837 
Q 1156 2606 1428 2606 
Q 1700 2606 1854 2837 
Q 2009 3069 2009 3481 
Q 2009 3884 1853 4118 
Q 1697 4353 1428 4353 
z
M 4250 4750 
L 4750 4750 
L 1831 -91 
L 1331 -91 
L 4250 4750 
z
M 1428 4750 
Q 1922 4750 2215 4408 
Q 2509 4066 2509 3481 
Q 2509 2891 2217 2550 
Q 1925 2209 1428 2209 
Q 931 2209 642 2551 
Q 353 2894 353 3481 
Q 353 4063 643 4406 
Q 934 4750 1428 4750 
z
" transform="scale(0.015625)"/>
       <path id="DejaVuSans-29" d="M 513 4856 
L 1013 4856 
Q 1481 4119 1714 3412 
Q 1947 2706 1947 2009 
Q 1947 1309 1714 600 
Q 1481 -109 1013 -844 
L 513 -844 
Q 928 -128 1133 580 
Q 1338 1288 1338 2009 
Q 1338 2731 1133 3434 
Q 928 4138 513 4856 
z
" transform="scale(0.015625)"/>
      </defs>
      <use xlink:href="#DejaVuSans-50"/>
      <use xlink:href="#DejaVuSans-65" x="56.677734"/>
      <use xlink:href="#DejaVuSans-72" x="118.201172"/>
      <use xlink:href="#DejaVuSans-66" x="159.314453"/>
      <use xlink:href="#DejaVuSans-6f" x="194.519531"/>
      <use xlink:href="#DejaVuSans-72" x="255.701172"/>
      <use xlink:href="#DejaVuSans-6d" x="295.064453"/>
      <use xlink:href="#DejaVuSans-61" x="392.476562"/>
      <use xlink:href="#DejaVuSans-6e" x="453.755859"/>
      <use xlink:href="#DejaVuSans-63" x="517.134766"/>
      <use xlink:href="#DejaVuSans-65" x="572.115234"/>
      <use xlink:href="#DejaVuSans-28" x="633.638672"/>
      <use xlink:href="#DejaVuSans-25" x="672.652344"/>
      <use xlink:href="#DejaVuSans-29" x="767.671875"/>
     </g>
    </g>
   </g>
   <g id="line2d_12">
    <path d="M 80.524091 221.736737 
L 84.042909 232.972869 
L 87.561727 226.567224 
L 91.080545 226.416803 
L 94.599364 189.796492 
L 98.118182 148.672079 
L 101.637 131.694423 
L 105.155818 132.687766 
L 108.674636 132.687766 
L 112.193455 120.861304 
L 115.712273 120.861304 
L 119.231091 116.064875 
L 122.749909 114.694061 
L 126.268727 114.694061 
L 129.787545 111.770794 
L 133.306364 111.770794 
L 136.825182 114.719604 
L 140.344 114.719604 
L 143.862818 114.719604 
L 147.381636 112.849281 
L 150.900455 112.849281 
L 154.419273 112.849281 
L 157.938091 111.523877 
L 161.456909 111.523877 
L 164.975727 111.523877 
L 168.494545 111.523877 
L 172.013364 111.523877 
L 175.532182 111.342237 
L 179.051 111.342237 
L 182.569818 110.050891 
L 186.088636 110.050891 
L 189.607455 110.050891 
L 193.126273 110.050891 
L 196.645091 110.556077 
L 200.163909 110.556077 
L 203.682727 103.883648 
L 207.201545 103.883648 
L 210.720364 108.345178 
L 214.239182 101.86858 
L 217.758 101.86858 
L 221.276818 101.86858 
L 224.795636 101.86858 
L 228.314455 101.86858 
L 231.833273 101.86858 
L 235.352091 101.86858 
L 238.870909 101.86858 
L 242.389727 101.86858 
L 245.908545 101.86858 
L 249.427364 101.86858 
L 252.946182 101.86858 
L 256.465 101.86858 
L 259.983818 101.86858 
L 263.502636 97.33042 
L 267.021455 97.33042 
L 270.540273 97.123237 
L 274.059091 97.123237 
L 277.577909 97.123237 
L 281.096727 97.123237 
L 284.615545 97.123237 
L 288.134364 97.123237 
L 291.653182 95.108169 
L 295.172 95.108169 
L 298.690818 95.108169 
L 302.209636 94.421343 
L 305.728455 94.421343 
L 309.247273 94.421343 
L 312.766091 94.421343 
L 316.284909 94.421343 
L 319.803727 94.421343 
L 323.322545 94.421343 
L 326.841364 94.421343 
L 330.360182 94.421343 
L 333.879 87.499159 
L 337.397818 87.499159 
L 340.916636 87.499159 
L 344.435455 87.499159 
L 347.954273 87.022355 
L 351.473091 83.917447 
L 354.991909 83.917447 
L 358.510727 83.917447 
L 362.029545 83.917447 
L 365.548364 83.917447 
L 369.067182 89.375159 
L 372.586 89.091347 
L 376.104818 89.091347 
L 379.623636 87.218185 
L 383.142455 85.135002 
L 386.661273 85.135002 
L 390.180091 85.135002 
L 393.698909 85.135002 
L 397.217727 85.135002 
L 400.736545 85.135002 
L 404.255364 85.135002 
L 407.774182 85.135002 
L 411.293 85.135002 
L 414.811818 85.100945 
L 418.330636 85.100945 
L 421.849455 85.100945 
L 425.368273 85.100945 
L 428.887091 85.100945 
L 432.405909 85.100945 
" clip-path="url(#p69611b2688)" style="fill: none; stroke: #1f77b4; stroke-width: 3; stroke-linecap: square"/>
   </g>
   <g id="line2d_13">
    <path d="M 80.524091 221.736737 
L 84.042909 193.826628 
L 87.561727 199.570991 
L 91.080545 195.259881 
L 94.599364 173.945571 
L 98.118182 162.78323 
L 101.637 137.251469 
L 105.155818 138.616607 
L 108.674636 138.616607 
L 112.193455 122.92462 
L 115.712273 122.92462 
L 119.231091 127.686992 
L 122.749909 123.080717 
L 126.268727 123.080717 
L 129.787545 127.499676 
L 133.306364 127.499676 
L 136.825182 127.014357 
L 140.344 127.014357 
L 143.862818 127.014357 
L 147.381636 128.623573 
L 150.900455 128.623573 
L 154.419273 128.623573 
L 157.938091 122.87921 
L 161.456909 122.87921 
L 164.975727 122.87921 
L 168.494545 122.87921 
L 172.013364 122.87921 
L 175.532182 127.159101 
L 179.051 127.159101 
L 182.569818 132.653709 
L 186.088636 132.653709 
L 189.607455 132.653709 
L 193.126273 132.653709 
L 196.645091 126.367264 
L 200.163909 126.367264 
L 203.682727 124.261377 
L 207.201545 124.261377 
L 210.720364 127.618877 
L 214.239182 127.440075 
L 217.758 127.440075 
L 221.276818 127.440075 
L 224.795636 127.440075 
L 228.314455 127.440075 
L 231.833273 127.440075 
L 235.352091 127.440075 
L 238.870909 127.440075 
L 242.389727 127.440075 
L 245.908545 127.440075 
L 249.427364 127.440075 
L 252.946182 127.440075 
L 256.465 127.440075 
L 259.983818 127.440075 
L 263.502636 126.625534 
L 267.021455 126.625534 
L 270.540273 128.927252 
L 274.059091 128.927252 
L 277.577909 128.927252 
L 281.096727 128.927252 
L 284.615545 128.927252 
L 288.134364 128.927252 
L 291.653182 128.569648 
L 295.172 128.569648 
L 298.690818 128.569648 
L 302.209636 127.525219 
L 305.728455 127.525219 
L 309.247273 127.525219 
L 312.766091 127.525219 
L 316.284909 127.525219 
L 319.803727 127.525219 
L 323.322545 127.525219 
L 326.841364 127.525219 
L 330.360182 127.525219 
L 333.879 100.971733 
L 337.397818 100.971733 
L 340.916636 100.971733 
L 344.435455 100.971733 
L 347.954273 94.719346 
L 351.473091 92.707117 
L 354.991909 92.707117 
L 358.510727 92.707117 
L 362.029545 92.707117 
L 365.548364 92.707117 
L 369.067182 100.506281 
L 372.586 98.607576 
L 376.104818 98.607576 
L 379.623636 95.323867 
L 383.142455 91.458342 
L 386.661273 91.458342 
L 390.180091 91.458342 
L 393.698909 91.458342 
L 397.217727 91.458342 
L 400.736545 91.458342 
L 404.255364 91.458342 
L 407.774182 91.458342 
L 411.293 91.458342 
L 414.811818 94.628526 
L 418.330636 94.628526 
L 421.849455 94.628526 
L 425.368273 94.628526 
L 428.887091 94.628526 
L 432.405909 94.628526 
" clip-path="url(#p69611b2688)" style="fill: none; stroke-dasharray: 1.5,1.5; stroke-dashoffset: 0; stroke: #ff7f0e; stroke-width: 1.5"/>
   </g>
   <g id="line2d_14">
    <path d="M 80.524091 221.736737 
L 84.042909 280.707273 
L 87.561727 273.231655 
L 91.080545 273.890099 
L 94.599364 226.933342 
L 98.118182 134.447403 
L 101.637 113.099036 
L 105.155818 113.485021 
L 108.674636 113.485021 
L 112.193455 104.201518 
L 115.712273 104.201518 
L 119.231091 87.124527 
L 122.749909 85.237175 
L 126.268727 85.237175 
L 129.787545 69.636008 
L 133.306364 69.636008 
L 136.825182 88.061108 
L 140.344 88.061108 
L 143.862818 88.061108 
L 147.381636 81.300697 
L 150.900455 81.300697 
L 154.419273 81.300697 
L 157.938091 80.869302 
L 161.456909 80.869302 
L 164.975727 80.869302 
L 168.494545 80.869302 
L 172.013364 80.869302 
L 175.532182 86.78679 
L 179.051 86.78679 
L 182.569818 63.556747 
L 186.088636 63.556747 
L 189.607455 63.556747 
L 193.126273 63.556747 
L 196.645091 63.008989 
L 200.163909 63.008989 
L 203.682727 64.779979 
L 207.201545 64.779979 
L 210.720364 61.658043 
L 214.239182 49.437082 
L 217.758 49.437082 
L 221.276818 49.437082 
L 224.795636 49.437082 
L 228.314455 49.437082 
L 231.833273 49.437082 
L 235.352091 49.437082 
L 238.870909 49.437082 
L 242.389727 49.437082 
L 245.908545 49.437082 
L 249.427364 49.437082 
L 252.946182 49.437082 
L 256.465 49.437082 
L 259.983818 49.437082 
L 263.502636 38.371237 
L 267.021455 38.371237 
L 270.540273 38.612478 
L 274.059091 38.612478 
L 277.577909 38.612478 
L 281.096727 38.612478 
L 284.615545 38.612478 
L 288.134364 38.612478 
L 291.653182 35.612581 
L 295.172 35.612581 
L 298.690818 35.612581 
L 302.209636 23.652727 
L 305.728455 23.652727 
L 309.247273 23.652727 
L 312.766091 23.652727 
L 316.284909 23.652727 
L 319.803727 23.652727 
L 323.322545 23.652727 
L 326.841364 23.652727 
L 330.360182 23.652727 
L 333.879 53.430322 
L 337.397818 53.430322 
L 340.916636 53.430322 
L 344.435455 53.430322 
L 347.954273 62.137685 
L 351.473091 52.070861 
L 354.991909 52.070861 
L 358.510727 52.070861 
L 362.029545 52.070861 
L 365.548364 52.070861 
L 369.067182 59.259828 
L 372.586 55.644058 
L 376.104818 55.644058 
L 379.623636 60.256009 
L 383.142455 59.631622 
L 386.661273 59.631622 
L 390.180091 59.631622 
L 393.698909 59.631622 
L 397.217727 59.631622 
L 400.736545 59.631622 
L 404.255364 59.631622 
L 407.774182 59.631622 
L 411.293 59.631622 
L 414.811818 50.927097 
L 418.330636 50.927097 
L 421.849455 50.927097 
L 425.368273 50.927097 
L 428.887091 50.927097 
L 432.405909 50.927097 
" clip-path="url(#p69611b2688)" style="fill: none; stroke-dasharray: 1.5,1.5; stroke-dashoffset: 0; stroke: #2ca02c; stroke-width: 1.5"/>
   </g>
   <g id="line2d_15">
    <path d="M 80.524091 221.736737 
L 84.042909 241.047331 
L 87.561727 244.248735 
L 91.080545 244.081286 
L 94.599364 194.260861 
L 98.118182 140.796286 
L 101.637 128.118387 
L 105.155818 130.732299 
L 108.674636 130.732299 
L 112.193455 108.240168 
L 115.712273 108.240168 
L 119.231091 102.229022 
L 122.749909 108.671563 
L 126.268727 108.671563 
L 129.787545 107.777554 
L 133.306364 107.777554 
L 136.825182 102.949905 
L 140.344 102.949905 
L 143.862818 102.949905 
L 147.381636 100.455194 
L 150.900455 100.455194 
L 154.419273 100.455194 
L 157.938091 99.424955 
L 161.456909 99.424955 
L 164.975727 99.424955 
L 168.494545 99.424955 
L 172.013364 99.424955 
L 175.532182 93.226493 
L 179.051 93.226493 
L 182.569818 101.408804 
L 186.088636 101.408804 
L 189.607455 101.408804 
L 193.126273 101.408804 
L 196.645091 109.829517 
L 200.163909 109.829517 
L 203.682727 85.18325 
L 207.201545 85.18325 
L 210.720364 103.202498 
L 214.239182 88.342082 
L 217.758 88.342082 
L 221.276818 88.342082 
L 224.795636 88.342082 
L 228.314455 88.342082 
L 231.833273 88.342082 
L 235.352091 88.342082 
L 238.870909 88.342082 
L 242.389727 88.342082 
L 245.908545 88.342082 
L 249.427364 88.342082 
L 252.946182 88.342082 
L 256.465 88.342082 
L 259.983818 88.342082 
L 263.502636 85.594778 
L 267.021455 85.594778 
L 270.540273 76.895929 
L 274.059091 76.895929 
L 277.577909 76.895929 
L 281.096727 76.895929 
L 284.615545 76.895929 
L 288.134364 76.895929 
L 291.653182 77.333 
L 295.172 77.333 
L 298.690818 77.333 
L 302.209636 83.818113 
L 305.728455 83.818113 
L 309.247273 83.818113 
L 312.766091 83.818113 
L 316.284909 83.818113 
L 319.803727 83.818113 
L 323.322545 83.818113 
L 326.841364 83.818113 
L 330.360182 83.818113 
L 333.879 57.284494 
L 337.397818 57.284494 
L 340.916636 57.284494 
L 344.435455 57.284494 
L 347.954273 52.868373 
L 351.473091 51.7388 
L 354.991909 51.7388 
L 358.510727 51.7388 
L 362.029545 51.7388 
L 365.548364 51.7388 
L 369.067182 56.702678 
L 372.586 58.476506 
L 376.104818 58.476506 
L 379.623636 57.8805 
L 383.142455 55.175768 
L 386.661273 55.175768 
L 390.180091 55.175768 
L 393.698909 55.175768 
L 397.217727 55.175768 
L 400.736545 55.175768 
L 404.255364 55.175768 
L 407.774182 55.175768 
L 411.293 55.175768 
L 414.811818 56.211683 
L 418.330636 56.211683 
L 421.849455 56.211683 
L 425.368273 56.211683 
L 428.887091 56.211683 
L 432.405909 56.211683 
" clip-path="url(#p69611b2688)" style="fill: none; stroke-dasharray: 1.5,1.5; stroke-dashoffset: 0; stroke: #d62728; stroke-width: 1.5"/>
   </g>
   <g id="line2d_16">
    <path d="M 80.524091 221.736737 
L 84.042909 216.304568 
L 87.561727 189.220353 
L 91.080545 192.435947 
L 94.599364 164.046195 
L 98.118182 156.667074 
L 101.637 148.305961 
L 105.155818 147.911462 
L 108.674636 147.911462 
L 112.193455 148.076073 
L 115.712273 148.076073 
L 119.231091 147.216122 
L 122.749909 141.781115 
L 126.268727 141.781115 
L 129.787545 142.172776 
L 133.306364 142.172776 
L 136.825182 140.853048 
L 140.344 140.853048 
L 143.862818 140.853048 
L 147.381636 141.020497 
L 150.900455 141.020497 
L 154.419273 141.020497 
L 157.938091 142.919202 
L 161.456909 142.919202 
L 164.975727 142.919202 
L 168.494545 142.919202 
L 172.013364 142.919202 
L 175.532182 138.196564 
L 179.051 138.196564 
L 182.569818 142.584304 
L 186.088636 142.584304 
L 189.607455 142.584304 
L 193.126273 142.584304 
L 196.645091 143.018536 
L 200.163909 143.018536 
L 203.682727 141.315662 
L 207.201545 141.315662 
L 210.720364 140.901296 
L 214.239182 142.257919 
L 217.758 142.257919 
L 221.276818 142.257919 
L 224.795636 142.257919 
L 228.314455 142.257919 
L 231.833273 142.257919 
L 235.352091 142.257919 
L 238.870909 142.257919 
L 242.389727 142.257919 
L 245.908545 142.257919 
L 249.427364 142.257919 
L 252.946182 142.257919 
L 256.465 142.257919 
L 259.983818 142.257919 
L 263.502636 138.724455 
L 267.021455 138.724455 
L 270.540273 144.060128 
L 274.059091 144.060128 
L 277.577909 144.060128 
L 281.096727 144.060128 
L 284.615545 144.060128 
L 288.134364 144.060128 
L 291.653182 138.920286 
L 295.172 138.920286 
L 298.690818 138.920286 
L 302.209636 142.683638 
L 305.728455 142.683638 
L 309.247273 142.683638 
L 312.766091 142.683638 
L 316.284909 142.683638 
L 319.803727 142.683638 
L 323.322545 142.683638 
L 326.841364 142.683638 
L 330.360182 142.683638 
L 333.879 138.315765 
L 337.397818 138.315765 
L 340.916636 138.315765 
L 344.435455 138.315765 
L 347.954273 138.366852 
L 351.473091 139.158688 
L 354.991909 139.158688 
L 358.510727 139.158688 
L 362.029545 139.158688 
L 365.548364 139.158688 
L 369.067182 141.029012 
L 372.586 143.640086 
L 376.104818 143.640086 
L 379.623636 135.418041 
L 383.142455 134.271439 
L 386.661273 134.271439 
L 390.180091 134.271439 
L 393.698909 134.271439 
L 397.217727 134.271439 
L 400.736545 134.271439 
L 404.255364 134.271439 
L 407.774182 134.271439 
L 411.293 134.271439 
L 414.811818 138.636473 
L 418.330636 138.636473 
L 421.849455 138.636473 
L 425.368273 138.636473 
L 428.887091 138.636473 
L 432.405909 138.636473 
" clip-path="url(#p69611b2688)" style="fill: none; stroke-dasharray: 1.5,1.5; stroke-dashoffset: 0; stroke: #9467bd; stroke-width: 1.5"/>
   </g>
   <g id="patch_3">
    <path d="M 62.93 293.56 
L 62.93 10.8 
" style="fill: none; stroke: #000000; stroke-width: 0.8; stroke-linejoin: miter; stroke-linecap: square"/>
   </g>
   <g id="patch_4">
    <path d="M 450 293.56 
L 450 10.8 
" style="fill: none; stroke: #000000; stroke-width: 0.8; stroke-linejoin: miter; stroke-linecap: square"/>
   </g>
   <g id="patch_5">
    <path d="M 62.93 293.56 
L 450 293.56 
" style="fill: none; stroke: #000000; stroke-width: 0.8; stroke-linejoin: miter; stroke-linecap: square"/>
   </g>
   <g id="patch_6">
    <path d="M 62.93 10.8 
L 450 10.8 
" style="fill: none; stroke: #000000; stroke-width: 0.8; stroke-linejoin: miter; stroke-linecap: square"/>
   </g>
   <g id="legend_1">
    <g id="patch_7">
     <path d="M 382.640625 288.56 
L 443 288.56 
Q 445 288.56 445 286.56 
L 445 214.169375 
Q 445 212.169375 443 212.169375 
L 382.640625 212.169375 
Q 380.640625 212.169375 380.640625 214.169375 
L 380.640625 286.56 
Q 380.640625 288.56 382.640625 288.56 
z
" style="fill: #ffffff; opacity: 0.8; stroke: #cccccc; stroke-linejoin: miter"/>
    </g>
    <g id="line2d_17">
     <path d="M 384.640625 220.267812 
L 394.640625 220.267812 
L 404.640625 220.267812 
" style="fill: none; stroke: #1f77b4; stroke-width: 3; stroke-linecap: square"/>
    </g>
    <g id="text_14">
     <!-- mean -->
     <g transform="translate(412.640625 223.767812) scale(0.1 -0.1)">
      <use xlink:href="#DejaVuSans-6d"/>
      <use xlink:href="#DejaVuSans-65" x="97.412109"/>
      <use xlink:href="#DejaVuSans-61" x="158.935547"/>
      <use xlink:href="#DejaVuSans-6e" x="220.214844"/>
     </g>
    </g>
    <g id="line2d_18">
     <path d="M 384.640625 234.945937 
L 394.640625 234.945937 
L 404.640625 234.945937 
" style="fill: none; stroke-dasharray: 1.5,1.5; stroke-dashoffset: 0; stroke: #ff7f0e; stroke-width: 1.5"/>
    </g>
    <g id="text_15">
     <!-- atlas -->
     <g transform="translate(412.640625 238.445937) scale(0.1 -0.1)">
      <defs>
       <path id="DejaVuSans-6c" d="M 603 4863 
L 1178 4863 
L 1178 0 
L 603 0 
L 603 4863 
z
" transform="scale(0.015625)"/>
       <path id="DejaVuSans-73" d="M 2834 3397 
L 2834 2853 
Q 2591 2978 2328 3040 
Q 2066 3103 1784 3103 
Q 1356 3103 1142 2972 
Q 928 2841 928 2578 
Q 928 2378 1081 2264 
Q 1234 2150 1697 2047 
L 1894 2003 
Q 2506 1872 2764 1633 
Q 3022 1394 3022 966 
Q 3022 478 2636 193 
Q 2250 -91 1575 -91 
Q 1294 -91 989 -36 
Q 684 19 347 128 
L 347 722 
Q 666 556 975 473 
Q 1284 391 1588 391 
Q 1994 391 2212 530 
Q 2431 669 2431 922 
Q 2431 1156 2273 1281 
Q 2116 1406 1581 1522 
L 1381 1569 
Q 847 1681 609 1914 
Q 372 2147 372 2553 
Q 372 3047 722 3315 
Q 1072 3584 1716 3584 
Q 2034 3584 2315 3537 
Q 2597 3491 2834 3397 
z
" transform="scale(0.015625)"/>
      </defs>
      <use xlink:href="#DejaVuSans-61"/>
      <use xlink:href="#DejaVuSans-74" x="61.279297"/>
      <use xlink:href="#DejaVuSans-6c" x="100.488281"/>
      <use xlink:href="#DejaVuSans-61" x="128.271484"/>
      <use xlink:href="#DejaVuSans-73" x="189.550781"/>
     </g>
    </g>
    <g id="line2d_19">
     <path d="M 384.640625 249.624062 
L 394.640625 249.624062 
L 404.640625 249.624062 
" style="fill: none; stroke-dasharray: 1.5,1.5; stroke-dashoffset: 0; stroke: #2ca02c; stroke-width: 1.5"/>
    </g>
    <g id="text_16">
     <!-- cms -->
     <g transform="translate(412.640625 253.124062) scale(0.1 -0.1)">
      <use xlink:href="#DejaVuSans-63"/>
      <use xlink:href="#DejaVuSans-6d" x="54.980469"/>
      <use xlink:href="#DejaVuSans-73" x="152.392578"/>
     </g>
    </g>
    <g id="line2d_20">
     <path d="M 384.640625 264.302187 
L 394.640625 264.302187 
L 404.640625 264.302187 
" style="fill: none; stroke-dasharray: 1.5,1.5; stroke-dashoffset: 0; stroke: #d62728; stroke-width: 1.5"/>
    </g>
    <g id="text_17">
     <!-- h1 -->
     <g transform="translate(412.640625 267.802187) scale(0.1 -0.1)">
      <defs>
       <path id="DejaVuSans-68" d="M 3513 2113 
L 3513 0 
L 2938 0 
L 2938 2094 
Q 2938 2591 2744 2837 
Q 2550 3084 2163 3084 
Q 1697 3084 1428 2787 
Q 1159 2491 1159 1978 
L 1159 0 
L 581 0 
L 581 4863 
L 1159 4863 
L 1159 2956 
Q 1366 3272 1645 3428 
Q 1925 3584 2291 3584 
Q 2894 3584 3203 3211 
Q 3513 2838 3513 2113 
z
" transform="scale(0.015625)"/>
      </defs>
      <use xlink:href="#DejaVuSans-68"/>
      <use xlink:href="#DejaVuSans-31" x="63.378906"/>
     </g>
    </g>
    <g id="line2d_21">
     <path d="M 384.640625 278.980312 
L 394.640625 278.980312 
L 404.640625 278.980312 
" style="fill: none; stroke-dasharray: 1.5,1.5; stroke-dashoffset: 0; stroke: #9467bd; stroke-width: 1.5"/>
    </g>
    <g id="text_18">
     <!-- lhcb -->
     <g transform="translate(412.640625 282.480312) scale(0.1 -0.1)">
      <defs>
       <path id="DejaVuSans-62" d="M 3116 1747 
Q 3116 2381 2855 2742 
Q 2594 3103 2138 3103 
Q 1681 3103 1420 2742 
Q 1159 2381 1159 1747 
Q 1159 1113 1420 752 
Q 1681 391 2138 391 
Q 2594 391 2855 752 
Q 3116 1113 3116 1747 
z
M 1159 2969 
Q 1341 3281 1617 3432 
Q 1894 3584 2278 3584 
Q 2916 3584 3314 3078 
Q 3713 2572 3713 1747 
Q 3713 922 3314 415 
Q 2916 -91 2278 -91 
Q 1894 -91 1617 61 
Q 1341 213 1159 525 
L 1159 0 
L 581 0 
L 581 4863 
L 1159 4863 
L 1159 2969 
z
" transform="scale(0.015625)"/>
      </defs>
      <use xlink:href="#DejaVuSans-6c"/>
      <use xlink:href="#DejaVuSans-68" x="27.783203"/>
      <use xlink:href="#DejaVuSans-63" x="91.162109"/>
      <use xlink:href="#DejaVuSans-62" x="146.142578"/>
     </g>
    </g>
   </g>
  </g>
 </g>
 <defs>
  <clipPath id="p69611b2688">
   <rect x="62.93" y="10.8" width="387.07" height="282.76"/>
  </clipPath>
 </defs>
</svg>
